<svg xmlns="http://www.w3.org/2000/svg" viewBox="0 0 1600 1000" preserveAspectRatio="xMidYMid slice">
  <defs>
    <linearGradient id="bg" x1="0" x2="1" y1="0" y2="1">
      <stop offset="0" stop-color="#171717"/>
      <stop offset=".45" stop-color="#282018"/>
      <stop offset="1" stop-color="#080808"/>
    </linearGradient>
    <linearGradient id="gold" x1="0" x2="1">
      <stop offset="0" stop-color="#8d7430"/>
      <stop offset="1" stop-color="#e8c97a"/>
    </linearGradient>
  </defs>
  <rect width="1600" height="1000" fill="url(#bg)"/>
  <g opacity=".25" stroke="#c9a84c">
    <path d="M980 0v1000M1110 0v1000M1240 0v1000M1370 0v1000"/>
    <path d="M900 140h560M870 290h610M840 440h660M810 590h690M780 740h700"/>
  </g>
  <path d="M1010 165h380l-78 650H930Z" fill="#141414" stroke="url(#gold)" stroke-width="7"/>
  <path d="M1048 205h142v570h-206Z" fill="#26231e"/>
  <path d="M1202 205h142l-66 570h-170Z" fill="#121212"/>
  <path d="M1070 250h248" stroke="#e8c97a" stroke-width="10" opacity=".55"/>
  <circle cx="1320" cy="500" r="12" fill="#c9a84c"/>
  <rect x="80" y="0" width="520" height="1000" fill="#080808" opacity=".22"/>
</svg>
